<svg id="Cargo" xmlns="http://www.w3.org/2000/svg" width="161" height="161" viewBox="0 0 161 161">
  <g id="Ellipse_20" data-name="Ellipse 20" fill="#fff" stroke="#cfd0d0" stroke-width="5">
    <circle cx="80.5" cy="80.5" r="80.5" stroke="none"/>
    <circle cx="80.5" cy="80.5" r="78" fill="none"/>
  </g>
  <path id="Path_269" data-name="Path 269" d="M98.683,36.375H93.336l-4.43-6.655a5.442,5.442,0,0,0-4.481-2.524H61.978L51.72,5.737A9.57,9.57,0,0,0,43.2,0H35.848a1.487,1.487,0,0,0-1.259.746,1.908,1.908,0,0,0-.167,1.592l8.485,24.856H12.813l-2.8-9.455A5.7,5.7,0,0,0,4.7,13.425H1.528A1.633,1.633,0,0,0,0,15.147V35.891a6.606,6.606,0,0,0,2.1,4.927l7.536,6.8a5.232,5.232,0,0,0,3.5,1.377H20.49L28.21,74.753v8.9a1.633,1.633,0,0,0,1.528,1.721h1.731V115.78A1.633,1.633,0,0,0,33,117.5H71.7a1.633,1.633,0,0,0,1.528-1.721V85.372h1.324a1.633,1.633,0,0,0,1.528-1.721v-8.9L83.79,49h18.967a1.633,1.633,0,0,0,1.528-1.721v-4.59C104.28,39.2,101.775,36.38,98.683,36.375Zm-12.221-4.59,3.055,4.59H81.676a1.633,1.633,0,0,1-1.528-1.721V30.637h4.277A2.476,2.476,0,0,1,86.462,31.785ZM38.072,3.442H43.2A6.545,6.545,0,0,1,49.03,7.364l9.477,19.831H46.18ZM4.7,16.868A2.586,2.586,0,0,1,7.117,18.83l2.475,8.365H3.055V16.868ZM73.019,81.929H57.743V76.192H73.019ZM49.6,76.192h5.092V90.014L52.94,89a1.372,1.372,0,0,0-1.367-.016L49.6,90.076Zm-3.055,5.737H31.265V76.192H46.541Zm23.627,32.129H34.524V85.372H46.541V92.83a1.781,1.781,0,0,0,.718,1.46,1.38,1.38,0,0,0,1.479.087l3.489-1.916,3.291,1.9a1.369,1.369,0,0,0,.7.19,1.633,1.633,0,0,0,1.528-1.721V85.372H70.168Zm3.283-41.309H30.833L23.718,49H39.956l-5.5,13.632a1.911,1.911,0,0,0,.107,1.644,1.494,1.494,0,0,0,1.284.789h7.74a9.426,9.426,0,0,0,8.163-5.049L57.971,49H80.566ZM49.181,58.165a6.451,6.451,0,0,1-5.593,3.454H38.221l8.795-21.8H59.544Zm52.048-12.611h-41.3l3.691-6.541a1.913,1.913,0,0,0,.044-1.747,1.513,1.513,0,0,0-1.333-.892H46.032a1.531,1.531,0,0,0-1.391,1.01l-3.294,8.17H13.141a2.379,2.379,0,0,1-1.591-.629l-7.536-6.8a3,3,0,0,1-.959-2.24V30.637H77.093v4.016a4.9,4.9,0,0,0,4.583,5.164H98.683a2.726,2.726,0,0,1,2.546,2.869Z" transform="translate(35.716 22.499)" fill="#cfd0d0" stroke="#cfd0d0" stroke-width="1"/>
</svg>
