<svg id="Feedback" xmlns="http://www.w3.org/2000/svg" width="161" height="161" viewBox="0 0 161 161">
  <g id="Ellipse_22" data-name="Ellipse 22" fill="#fff" stroke="#cfd0d0" stroke-width="5">
    <circle cx="80.5" cy="80.5" r="80.5" stroke="none"/>
    <circle cx="80.5" cy="80.5" r="78" fill="none"/>
  </g>
  <g id="Group_267" data-name="Group 267" transform="translate(27.022 36.655)">
    <path id="Path_152" data-name="Path 152" d="M41.493,1025.362a2.326,2.326,0,0,0-2.127,1.282L28.658,1047.95l-10.835,1.5a2.328,2.328,0,0,0-1.782,3.318l3.863,7.972a2.326,2.326,0,0,0,1.745,1.281l20.189,3.082L27.1,1079.256a2.327,2.327,0,0,0-.682,2.054l1.473,8.972a2.327,2.327,0,0,0,3.363,1.69l9.763-5.036,21.016,11.244a2.328,2.328,0,0,0,3.391-2.428l-3.854-23.524,17.189-16.517a2.327,2.327,0,0,0-1.263-3.982l-23.57-3.59-10.39-21.462a2.327,2.327,0,0,0-2.045-1.318Zm-.082,7.6,8.863,18.307a2.326,2.326,0,0,0,1.745,1.282l20.125,3.073-14.68,14.1a2.327,2.327,0,0,0-.682,2.054l3.291,20.08-17.934-9.6a2.327,2.327,0,0,0-2.173-.019l-8,4.128-.754-4.6,17.244-16.571a2.327,2.327,0,0,0-1.263-3.98l-23.634-3.6-1.936-3.991,8.89-1.227a2.329,2.329,0,0,0,1.763-1.264l9.135-18.17Z" transform="translate(27.477 -1025.361)" fill="#cfd0d0"/>
    <path id="Path_153" data-name="Path 153" d="M44.61,1027.421a2.328,2.328,0,0,0-1.659,1.25l-10.744,21.362L8.524,1053.3a2.328,2.328,0,0,0-1.321,3.966l17.006,16.813-4.221,23.529a2.327,2.327,0,0,0,3.366,2.483l21.24-10.972,21.086,11.273a2.328,2.328,0,0,0,3.389-2.422l-3.868-23.6,17.241-16.564a2.327,2.327,0,0,0-1.257-3.977l-23.634-3.618L47.119,1028.7a2.327,2.327,0,0,0-2.509-1.28Zm.382,7.553,8.9,18.373a2.328,2.328,0,0,0,1.742,1.283l20.185,3.086L61.092,1071.86a2.327,2.327,0,0,0-.685,2.058l3.3,20.154-18-9.639a2.328,2.328,0,0,0-2.157,0l-18.145,9.372,3.6-20.1a2.328,2.328,0,0,0-.658-2.064l-14.51-14.363,20.222-2.79a2.326,2.326,0,0,0,1.758-1.258l9.177-18.241Z" transform="translate(-6.509 -1017.973)" fill="#cfd0d0"/>
  </g>
</svg>
