<svg id="Latest_News" data-name="Latest News" xmlns="http://www.w3.org/2000/svg" width="161" height="161" viewBox="0 0 161 161">
  <g id="Ellipse_19" data-name="Ellipse 19" fill="#fff" stroke="#cfd0d0" stroke-width="5">
    <circle cx="80.5" cy="80.5" r="80.5" stroke="none"/>
    <circle cx="80.5" cy="80.5" r="78" fill="none"/>
  </g>
  <g id="Group_265" data-name="Group 265" transform="translate(34.577 36.129)">
    <path id="Path_142" data-name="Path 142" d="M69.349,88.181H11.59a2.59,2.59,0,0,1,0-5.181,8.87,8.87,0,0,0,8.859-8.859V2.59A2.579,2.579,0,0,1,23.04,0h58.2a2.587,2.587,0,0,1,2.59,2.59V73.714A14.486,14.486,0,0,1,69.349,88.181ZM22.475,83H69.349a9.291,9.291,0,0,0,9.287-9.287V5.181H25.63V74.127A14.024,14.024,0,0,1,22.475,83Z" transform="translate(2.45)" fill="#cfd0d0"/>
    <path id="Path_143" data-name="Path 143" d="M14.73,84.917A14.054,14.054,0,0,1,.69,70.877V40.826a2.587,2.587,0,0,1,2.59-2.59H26.166a2.587,2.587,0,0,1,2.59,2.59V70.877A14.033,14.033,0,0,1,14.73,84.917Zm-8.846-41.5V70.863a8.853,8.853,0,1,0,17.705,0V43.416ZM75.038,25.491h-38a2.587,2.587,0,0,1-2.59-2.59V11.23a2.587,2.587,0,0,1,2.59-2.59h38a2.587,2.587,0,0,1,2.59,2.59V22.9A2.587,2.587,0,0,1,75.038,25.491ZM39.641,20.3H72.448V13.821H39.641ZM52.607,51.2H37.037a2.587,2.587,0,0,1-2.59-2.59V33.041a2.587,2.587,0,0,1,2.59-2.59H52.593a2.587,2.587,0,0,1,2.59,2.59V48.6A2.57,2.57,0,0,1,52.607,51.2ZM39.641,46.007H50.016V35.632H39.641V46.007Zm35.4,5.194H62.072a2.59,2.59,0,0,1,0-5.181H75.038a2.59,2.59,0,0,1,0,5.181Zm0,12.965h-38a2.59,2.59,0,1,1,0-5.181h38a2.59,2.59,0,1,1,0,5.181Z" transform="translate(-0.69 3.264)" fill="#cfd0d0"/>
  </g>
</svg>
